# xmcd
#
# Track frame offsets:
#	150
#	13912
#	30618
#	45260
#	56478
#	72988
#	94678
#	108850
#	126994
#	145156
#	170728
#	194390
#	211695
#	224736
#	244739
#	257577
#
# Disc length: 3642 seconds
#
# Revision: 1
# Processed by: cddbd v1.5.1PL2 Copyright (c) Steve Scherf et al.
# Submitted via: audiograbber 1.83.01
#
DISCID=e80e3810
DTITLE=Denver, John - The Only John Denver Album You'll Ever Need
DYEAR=2005
DGENRE=Country
TTITLE0=Annie's Song
TTITLE1=Leaving On A Jet Plane
TTITLE2=Take Me Home, Country Roads
TTITLE3=Follow Me
TTITLE4=Goodbye Again
TTITLE5=Rocky Mountain High
TTITLE6=Starwood In Aspen
TTITLE7=Windsong
TTITLE8=Some Days Are Diamonds
TTITLE9=Sweet Surrender
TTITLE10=Sunshine On My Shoulders
TTITLE11=Seasons of the Heart
TTITLE12=Love Again
TTITLE13=I'd Rather Be A Cowboy (Lady's Chains)
TTITLE14=This Old Guitar
TTITLE15=Thank God I'm A Country Boy
EXTD=
EXTT0=
EXTT1=
EXTT2=
EXTT3=
EXTT4=
EXTT5=
EXTT6=
EXTT7=
EXTT8=
EXTT9=
EXTT10=
EXTT11=
EXTT12=
EXTT13=
EXTT14=
EXTT15=
PLAYORDER=
